<svg width="22" height="22" viewBox="0 0 22 22" fill="none" xmlns="http://www.w3.org/2000/svg">
<path fill-rule="evenodd" clip-rule="evenodd" d="M7.33333 6.41667C7.33333 5.44421 7.71964 4.51157 8.40728 3.82394C9.09491 3.13631 10.0275 2.75 11 2.75C11.9725 2.75 12.9051 3.13631 13.5927 3.82394C14.2804 4.51157 14.6667 5.44421 14.6667 6.41667C14.6667 7.38913 14.2804 8.32176 13.5927 9.00939C12.9051 9.69703 11.9725 10.0833 11 10.0833C10.0275 10.0833 9.09491 9.69703 8.40728 9.00939C7.71964 8.32176 7.33333 7.38913 7.33333 6.41667ZM7.33333 11.9167C6.11776 11.9167 4.95197 12.3996 4.09243 13.2591C3.23289 14.1186 2.75 15.2844 2.75 16.5C2.75 17.2293 3.03973 17.9288 3.55546 18.4445C4.07118 18.9603 4.77065 19.25 5.5 19.25H16.5C17.2293 19.25 17.9288 18.9603 18.4445 18.4445C18.9603 17.9288 19.25 17.2293 19.25 16.5C19.25 15.2844 18.7671 14.1186 17.9076 13.2591C17.048 12.3996 15.8822 11.9167 14.6667 11.9167H7.33333Z" fill="#212121"/>
</svg>
