<svg width="22" height="22" viewBox="0 0 22 22" fill="none" xmlns="http://www.w3.org/2000/svg">
<path d="M20.167 11.0961C20.167 12.9092 19.6294 14.6816 18.6221 16.1891C17.6148 17.6966 16.1831 18.8715 14.508 19.5654C12.833 20.2592 10.9898 20.4408 9.21154 20.087C7.43331 19.7333 5.79989 18.8603 4.51786 17.5782C3.23582 16.2962 2.36274 14.6628 2.00903 12.8845C1.65532 11.1063 1.83686 9.26311 2.53069 7.58805C3.22452 5.91299 4.39949 4.48129 5.907 3.474C7.41452 2.46672 9.18687 1.92908 10.9999 1.92908C12.2038 1.92908 13.3958 2.16619 14.508 2.62688C15.6202 3.08756 16.6308 3.76281 17.482 4.61404C18.3333 5.46528 19.0085 6.47585 19.4692 7.58805C19.9299 8.70025 20.167 9.8923 20.167 11.0961ZM16.4189 7.88645C16.4183 7.64362 16.3216 7.41089 16.15 7.23907C15.9784 7.06726 15.7458 6.97031 15.503 6.96939H6.54668C6.30385 6.97031 6.07125 7.06726 5.89965 7.23907C5.72805 7.41089 5.63139 7.64362 5.63078 7.88645V13.8924C5.6317 14.1351 5.72849 14.3675 5.90005 14.5391C6.07162 14.7106 6.30405 14.8074 6.54668 14.8083H9.93931L10.8124 16.2106C10.8285 16.2486 10.8556 16.2811 10.89 16.3039C10.9245 16.3267 10.965 16.3389 11.0063 16.3389C11.0477 16.3389 11.0881 16.3267 11.1226 16.3039C11.1571 16.2811 11.1841 16.2486 11.2003 16.2106L12.0745 14.8095H15.5018C15.7447 14.8086 15.9773 14.7116 16.1489 14.5398C16.3205 14.368 16.4171 14.1353 16.4177 13.8924L16.4189 7.88645ZM11.6078 12.8527C11.6078 12.9678 11.5737 13.0805 11.5097 13.1762C11.4457 13.272 11.3547 13.3467 11.2483 13.3907C11.1419 13.4348 11.0248 13.4464 10.9118 13.4239C10.7988 13.4014 10.695 13.3459 10.6136 13.2645C10.5321 13.183 10.4767 13.0793 10.4542 12.9663C10.4317 12.8533 10.4432 12.7362 10.4873 12.6298C10.5314 12.5233 10.6061 12.4324 10.7018 12.3684C10.7976 12.3044 10.9102 12.2702 11.0254 12.2702C11.1799 12.2702 11.328 12.3316 11.4373 12.4408C11.5465 12.55 11.6078 12.6982 11.6078 12.8527ZM10.5657 11.3729V8.7016C10.5657 8.57984 10.6141 8.46307 10.7002 8.37697C10.7863 8.29087 10.9031 8.2425 11.0248 8.2425C11.1466 8.2425 11.2634 8.29087 11.3495 8.37697C11.4356 8.46307 11.4839 8.57984 11.4839 8.7016V11.3729C11.4839 11.4945 11.4356 11.6111 11.3496 11.6971C11.2637 11.7831 11.147 11.8314 11.0254 11.8314C10.9038 11.8314 10.7872 11.7831 10.7012 11.6971C10.6152 11.6111 10.5669 11.4945 10.5669 11.3729H10.5657Z" fill="#212121"/>
</svg>
