<svg width="250" height="229" viewBox="0 0 250 229" fill="none" xmlns="http://www.w3.org/2000/svg">
<path d="M4.38 223C3.54 223 3.12 222.58 3.12 221.74V203.92C3.12 203.08 3.54 202.66 4.38 202.66H15.42C15.81 202.66 16.115 202.775 16.335 203.005C16.565 203.225 16.68 203.53 16.68 203.92C16.68 204.76 16.26 205.18 15.42 205.18H5.64V211.48H11.67C12.51 211.48 12.93 211.9 12.93 212.74C12.93 213.58 12.51 214 11.67 214H5.64V221.74C5.64 222.58 5.22 223 4.38 223ZM18.9405 223C18.1005 223 17.6805 222.58 17.6805 221.74V209.05C17.6805 208.21 18.1005 207.79 18.9405 207.79C19.7805 207.79 20.2005 208.21 20.2005 209.05V210.22C20.7905 209.42 21.5405 208.815 22.4505 208.405C23.3705 207.995 24.4205 207.79 25.6005 207.79C26.4405 207.79 26.8605 208.21 26.8605 209.05C26.8605 209.89 26.4405 210.31 25.6005 210.31C23.8705 210.31 22.5505 210.63 21.6405 211.27C20.7305 211.91 20.2505 212.755 20.2005 213.805V221.74C20.2005 222.58 19.7805 223 18.9405 223ZM31.3233 205.33C30.3733 205.33 29.8983 204.85 29.8983 203.89V203.005C29.8983 202.065 30.3733 201.595 31.3233 201.595H32.1933C33.1033 201.595 33.5583 202.065 33.5583 203.005V203.89C33.5583 204.85 33.1033 205.33 32.1933 205.33H31.3233ZM31.7433 223C30.9033 223 30.4833 222.58 30.4833 221.74V209.05C30.4833 208.21 30.9033 207.79 31.7433 207.79C32.5833 207.79 33.0033 208.21 33.0033 209.05V221.74C33.0033 222.58 32.5833 223 31.7433 223ZM41.043 216.43V217.15C41.043 218.44 41.278 219.32 41.748 219.79C42.218 220.25 43.103 220.48 44.403 220.48H46.863C47.883 220.48 48.638 220.385 49.128 220.195C49.618 220.005 49.943 219.67 50.103 219.19C50.213 218.81 50.363 218.52 50.553 218.32C50.753 218.12 51.053 218.02 51.453 218.02C51.873 218.02 52.193 218.13 52.413 218.35C52.633 218.57 52.703 218.89 52.623 219.31C52.403 220.55 51.813 221.475 50.853 222.085C49.893 222.695 48.563 223 46.863 223H44.403C42.413 223 40.933 222.52 39.963 221.56C39.003 220.6 38.523 219.13 38.523 217.15V213.67C38.523 211.64 39.003 210.15 39.963 209.2C40.933 208.24 42.413 207.77 44.403 207.79H46.863C48.863 207.79 50.343 208.27 51.303 209.23C52.263 210.18 52.743 211.66 52.743 213.67V215.17C52.743 216.01 52.323 216.43 51.483 216.43H41.043ZM44.403 210.31C43.103 210.29 42.218 210.515 41.748 210.985C41.278 211.455 41.043 212.35 41.043 213.67V213.91H50.223V213.67C50.223 212.36 49.988 211.475 49.518 211.015C49.058 210.545 48.173 210.31 46.863 210.31H44.403ZM59.5167 223C58.6767 223 58.2567 222.58 58.2567 221.74V209.05C58.2567 208.21 58.6767 207.79 59.5167 207.79C60.3567 207.79 60.7767 208.21 60.7767 209.05V209.545C61.8367 208.375 63.3967 207.79 65.4567 207.79H66.2967C68.2967 207.79 69.7767 208.27 70.7367 209.23C71.6967 210.19 72.1767 211.67 72.1767 213.67V221.74C72.1767 222.58 71.7567 223 70.9167 223C70.0767 223 69.6567 222.58 69.6567 221.74V213.67C69.6567 212.36 69.4167 211.475 68.9367 211.015C68.4667 210.545 67.5867 210.31 66.2967 210.31H65.4567C64.2567 210.31 63.2117 210.45 62.3217 210.73C61.4317 211 60.9167 211.43 60.7767 212.02V221.74C60.7767 222.58 60.3567 223 59.5167 223ZM83.28 223C81.29 223 79.81 222.52 78.84 221.56C77.88 220.59 77.4 219.11 77.4 217.12V213.67C77.4 211.67 77.88 210.19 78.84 209.23C79.81 208.27 81.29 207.79 83.28 207.79H89.1V203.14C89.1 202.3 89.52 201.88 90.36 201.88C91.2 201.88 91.62 202.3 91.62 203.14V221.74C91.62 222.58 91.2 223 90.36 223C89.52 223 89.1 222.58 89.1 221.74V221.53C88.63 222.01 88.015 222.375 87.255 222.625C86.495 222.875 85.55 223 84.42 223H83.28ZM83.28 220.48H84.42C85.74 220.48 86.85 220.31 87.75 219.97C88.65 219.63 89.1 219.11 89.1 218.41V210.31H83.28C81.98 210.31 81.095 210.55 80.625 211.03C80.155 211.5 79.92 212.38 79.92 213.67V217.12C79.92 218.42 80.155 219.305 80.625 219.775C81.105 220.245 81.99 220.48 83.28 220.48ZM102.103 223C100.573 223 99.4331 222.625 98.6831 221.875C97.9431 221.115 97.5731 219.97 97.5731 218.44V203.14C97.5731 202.3 97.9931 201.88 98.8331 201.88C99.6731 201.88 100.093 202.3 100.093 203.14V218.44C100.093 219.25 100.223 219.795 100.483 220.075C100.753 220.345 101.293 220.48 102.103 220.48C102.963 220.48 103.393 220.9 103.393 221.74C103.423 222.58 102.993 223 102.103 223ZM111.876 229C110.426 229 109.341 228.635 108.621 227.905C107.911 227.185 107.556 226.1 107.556 224.65C107.556 223.81 107.976 223.39 108.816 223.39C109.656 223.39 110.076 223.81 110.076 224.65C110.076 225.4 110.186 225.89 110.406 226.12C110.636 226.36 111.126 226.48 111.876 226.48H117.696C118.436 226.48 118.921 226.36 119.151 226.12C119.381 225.89 119.496 225.4 119.496 224.65V220.84C118.896 221.74 118.196 222.325 117.396 222.595C116.606 222.865 115.746 223 114.816 223H113.346C111.366 223 109.906 222.53 108.966 221.59C108.026 220.65 107.556 219.2 107.556 217.24V209.05C107.556 208.21 107.976 207.79 108.816 207.79C109.656 207.79 110.076 208.21 110.076 209.05V217.24C110.076 218.5 110.301 219.355 110.751 219.805C111.211 220.255 112.076 220.48 113.346 220.48H114.816C116.456 220.48 117.646 220.215 118.386 219.685C119.126 219.145 119.496 218.33 119.496 217.24V209.05C119.496 208.21 119.916 207.79 120.756 207.79C121.596 207.79 122.016 208.21 122.016 209.05V224.65C122.016 226.1 121.656 227.185 120.936 227.905C120.216 228.635 119.136 229 117.696 229H111.876ZM138.941 223C138.101 223 137.681 222.58 137.681 221.74V203.92C137.681 203.08 138.101 202.66 138.941 202.66H145.961C147.791 202.66 149.191 203.15 150.161 204.13C151.141 205.1 151.631 206.5 151.631 208.33V209.23C151.631 211.06 151.141 212.465 150.161 213.445C149.191 214.415 147.791 214.9 145.961 214.9H140.201V221.74C140.201 222.58 139.781 223 138.941 223ZM140.201 212.38H145.961C147.101 212.38 147.911 212.14 148.391 211.66C148.871 211.18 149.111 210.37 149.111 209.23V208.33C149.111 207.2 148.871 206.395 148.391 205.915C147.911 205.425 147.101 205.18 145.961 205.18H140.201V212.38ZM160.759 223C159.079 223 157.829 222.59 157.009 221.77C156.189 220.95 155.779 219.7 155.779 218.02C155.779 216.34 156.184 215.09 156.994 214.27C157.814 213.45 159.069 213.04 160.759 213.04H167.104C167.044 211.99 166.769 211.275 166.279 210.895C165.789 210.505 164.949 210.31 163.759 210.31H162.019C161.019 210.31 160.274 210.38 159.784 210.52C159.294 210.65 158.949 210.89 158.749 211.24C158.569 211.66 158.384 211.95 158.194 212.11C158.004 212.27 157.719 212.35 157.339 212.35C156.919 212.35 156.589 212.235 156.349 212.005C156.109 211.765 156.039 211.45 156.139 211.06C156.439 209.93 157.064 209.105 158.014 208.585C158.974 208.055 160.309 207.79 162.019 207.79H163.759C165.759 207.79 167.239 208.27 168.199 209.23C169.159 210.19 169.639 211.67 169.639 213.67V221.74C169.639 222.58 169.219 223 168.379 223C167.539 223 167.119 222.58 167.119 221.74V221.065C166.049 222.355 164.489 223 162.439 223H160.759ZM160.759 220.48H162.439C163.179 220.48 163.874 220.415 164.524 220.285C165.174 220.145 165.729 219.895 166.189 219.535C166.659 219.175 166.969 218.66 167.119 217.99V215.56H160.759C159.769 215.56 159.109 215.725 158.779 216.055C158.459 216.385 158.299 217.04 158.299 218.02C158.299 219.01 158.459 219.67 158.779 220C159.109 220.32 159.769 220.48 160.759 220.48ZM176.851 223C176.011 223 175.591 222.58 175.591 221.74V209.05C175.591 208.21 176.011 207.79 176.851 207.79C177.691 207.79 178.111 208.21 178.111 209.05V210.22C178.701 209.42 179.451 208.815 180.361 208.405C181.281 207.995 182.331 207.79 183.511 207.79C184.351 207.79 184.771 208.21 184.771 209.05C184.771 209.89 184.351 210.31 183.511 210.31C181.781 210.31 180.461 210.63 179.551 211.27C178.641 211.91 178.161 212.755 178.111 213.805V221.74C178.111 222.58 177.691 223 176.851 223ZM194.813 223C192.833 223 191.373 222.53 190.433 221.59C189.493 220.65 189.023 219.2 189.023 217.24V210.31H187.553C186.713 210.31 186.293 209.89 186.293 209.05C186.293 208.21 186.713 207.79 187.553 207.79H189.023V205.6C189.023 204.76 189.443 204.34 190.283 204.34C191.123 204.34 191.543 204.76 191.543 205.6V207.79H194.993C195.833 207.79 196.253 208.21 196.253 209.05C196.253 209.89 195.833 210.31 194.993 210.31H191.543V217.24C191.543 218.51 191.773 219.37 192.233 219.82C192.693 220.26 193.553 220.48 194.813 220.48C195.203 220.48 195.508 220.58 195.728 220.78C195.958 220.98 196.073 221.3 196.073 221.74C196.073 222.58 195.653 223 194.813 223ZM202.222 223C201.382 223 200.962 222.58 200.962 221.74V209.05C200.962 208.21 201.382 207.79 202.222 207.79C203.062 207.79 203.482 208.21 203.482 209.05V209.545C204.542 208.375 206.102 207.79 208.162 207.79H209.002C211.002 207.79 212.482 208.27 213.442 209.23C214.402 210.19 214.882 211.67 214.882 213.67V221.74C214.882 222.58 214.462 223 213.622 223C212.782 223 212.362 222.58 212.362 221.74V213.67C212.362 212.36 212.122 211.475 211.642 211.015C211.172 210.545 210.292 210.31 209.002 210.31H208.162C206.962 210.31 205.917 210.45 205.027 210.73C204.137 211 203.622 211.43 203.482 212.02V221.74C203.482 222.58 203.062 223 202.222 223ZM222.625 216.43V217.15C222.625 218.44 222.86 219.32 223.33 219.79C223.8 220.25 224.685 220.48 225.985 220.48H228.445C229.465 220.48 230.22 220.385 230.71 220.195C231.2 220.005 231.525 219.67 231.685 219.19C231.795 218.81 231.945 218.52 232.135 218.32C232.335 218.12 232.635 218.02 233.035 218.02C233.455 218.02 233.775 218.13 233.995 218.35C234.215 218.57 234.285 218.89 234.205 219.31C233.985 220.55 233.395 221.475 232.435 222.085C231.475 222.695 230.145 223 228.445 223H225.985C223.995 223 222.515 222.52 221.545 221.56C220.585 220.6 220.105 219.13 220.105 217.15V213.67C220.105 211.64 220.585 210.15 221.545 209.2C222.515 208.24 223.995 207.77 225.985 207.79H228.445C230.445 207.79 231.925 208.27 232.885 209.23C233.845 210.18 234.325 211.66 234.325 213.67V215.17C234.325 216.01 233.905 216.43 233.065 216.43H222.625ZM225.985 210.31C224.685 210.29 223.8 210.515 223.33 210.985C222.86 211.455 222.625 212.35 222.625 213.67V213.91H231.805V213.67C231.805 212.36 231.57 211.475 231.1 211.015C230.64 210.545 229.755 210.31 228.445 210.31H225.985ZM241.099 223C240.259 223 239.839 222.58 239.839 221.74V209.05C239.839 208.21 240.259 207.79 241.099 207.79C241.939 207.79 242.359 208.21 242.359 209.05V210.22C242.949 209.42 243.699 208.815 244.609 208.405C245.529 207.995 246.579 207.79 247.759 207.79C248.599 207.79 249.019 208.21 249.019 209.05C249.019 209.89 248.599 210.31 247.759 210.31C246.029 210.31 244.709 210.63 243.799 211.27C242.889 211.91 242.409 212.755 242.359 213.805V221.74C242.359 222.58 241.939 223 241.099 223Z" fill="black"/>
<path d="M4.38 223C3.54 223 3.12 222.58 3.12 221.74V203.92C3.12 203.08 3.54 202.66 4.38 202.66H15.42C15.81 202.66 16.115 202.775 16.335 203.005C16.565 203.225 16.68 203.53 16.68 203.92C16.68 204.76 16.26 205.18 15.42 205.18H5.64V211.48H11.67C12.51 211.48 12.93 211.9 12.93 212.74C12.93 213.58 12.51 214 11.67 214H5.64V221.74C5.64 222.58 5.22 223 4.38 223ZM18.9405 223C18.1005 223 17.6805 222.58 17.6805 221.74V209.05C17.6805 208.21 18.1005 207.79 18.9405 207.79C19.7805 207.79 20.2005 208.21 20.2005 209.05V210.22C20.7905 209.42 21.5405 208.815 22.4505 208.405C23.3705 207.995 24.4205 207.79 25.6005 207.79C26.4405 207.79 26.8605 208.21 26.8605 209.05C26.8605 209.89 26.4405 210.31 25.6005 210.31C23.8705 210.31 22.5505 210.63 21.6405 211.27C20.7305 211.91 20.2505 212.755 20.2005 213.805V221.74C20.2005 222.58 19.7805 223 18.9405 223ZM31.3233 205.33C30.3733 205.33 29.8983 204.85 29.8983 203.89V203.005C29.8983 202.065 30.3733 201.595 31.3233 201.595H32.1933C33.1033 201.595 33.5583 202.065 33.5583 203.005V203.89C33.5583 204.85 33.1033 205.33 32.1933 205.33H31.3233ZM31.7433 223C30.9033 223 30.4833 222.58 30.4833 221.74V209.05C30.4833 208.21 30.9033 207.79 31.7433 207.79C32.5833 207.79 33.0033 208.21 33.0033 209.05V221.74C33.0033 222.58 32.5833 223 31.7433 223ZM41.043 216.43V217.15C41.043 218.44 41.278 219.32 41.748 219.79C42.218 220.25 43.103 220.48 44.403 220.48H46.863C47.883 220.48 48.638 220.385 49.128 220.195C49.618 220.005 49.943 219.67 50.103 219.19C50.213 218.81 50.363 218.52 50.553 218.32C50.753 218.12 51.053 218.02 51.453 218.02C51.873 218.02 52.193 218.13 52.413 218.35C52.633 218.57 52.703 218.89 52.623 219.31C52.403 220.55 51.813 221.475 50.853 222.085C49.893 222.695 48.563 223 46.863 223H44.403C42.413 223 40.933 222.52 39.963 221.56C39.003 220.6 38.523 219.13 38.523 217.15V213.67C38.523 211.64 39.003 210.15 39.963 209.2C40.933 208.24 42.413 207.77 44.403 207.79H46.863C48.863 207.79 50.343 208.27 51.303 209.23C52.263 210.18 52.743 211.66 52.743 213.67V215.17C52.743 216.01 52.323 216.43 51.483 216.43H41.043ZM44.403 210.31C43.103 210.29 42.218 210.515 41.748 210.985C41.278 211.455 41.043 212.35 41.043 213.67V213.91H50.223V213.67C50.223 212.36 49.988 211.475 49.518 211.015C49.058 210.545 48.173 210.31 46.863 210.31H44.403ZM59.5167 223C58.6767 223 58.2567 222.58 58.2567 221.74V209.05C58.2567 208.21 58.6767 207.79 59.5167 207.79C60.3567 207.79 60.7767 208.21 60.7767 209.05V209.545C61.8367 208.375 63.3967 207.79 65.4567 207.79H66.2967C68.2967 207.79 69.7767 208.27 70.7367 209.23C71.6967 210.19 72.1767 211.67 72.1767 213.67V221.74C72.1767 222.58 71.7567 223 70.9167 223C70.0767 223 69.6567 222.58 69.6567 221.74V213.67C69.6567 212.36 69.4167 211.475 68.9367 211.015C68.4667 210.545 67.5867 210.31 66.2967 210.31H65.4567C64.2567 210.31 63.2117 210.45 62.3217 210.73C61.4317 211 60.9167 211.43 60.7767 212.02V221.74C60.7767 222.58 60.3567 223 59.5167 223ZM83.28 223C81.29 223 79.81 222.52 78.84 221.56C77.88 220.59 77.4 219.11 77.4 217.12V213.67C77.4 211.67 77.88 210.19 78.84 209.23C79.81 208.27 81.29 207.79 83.28 207.79H89.1V203.14C89.1 202.3 89.52 201.88 90.36 201.88C91.2 201.88 91.62 202.3 91.62 203.14V221.74C91.62 222.58 91.2 223 90.36 223C89.52 223 89.1 222.58 89.1 221.74V221.53C88.63 222.01 88.015 222.375 87.255 222.625C86.495 222.875 85.55 223 84.42 223H83.28ZM83.28 220.48H84.42C85.74 220.48 86.85 220.31 87.75 219.97C88.65 219.63 89.1 219.11 89.1 218.41V210.31H83.28C81.98 210.31 81.095 210.55 80.625 211.03C80.155 211.5 79.92 212.38 79.92 213.67V217.12C79.92 218.42 80.155 219.305 80.625 219.775C81.105 220.245 81.99 220.48 83.28 220.48ZM102.103 223C100.573 223 99.4331 222.625 98.6831 221.875C97.9431 221.115 97.5731 219.97 97.5731 218.44V203.14C97.5731 202.3 97.9931 201.88 98.8331 201.88C99.6731 201.88 100.093 202.3 100.093 203.14V218.44C100.093 219.25 100.223 219.795 100.483 220.075C100.753 220.345 101.293 220.48 102.103 220.48C102.963 220.48 103.393 220.9 103.393 221.74C103.423 222.58 102.993 223 102.103 223ZM111.876 229C110.426 229 109.341 228.635 108.621 227.905C107.911 227.185 107.556 226.1 107.556 224.65C107.556 223.81 107.976 223.39 108.816 223.39C109.656 223.39 110.076 223.81 110.076 224.65C110.076 225.4 110.186 225.89 110.406 226.12C110.636 226.36 111.126 226.48 111.876 226.48H117.696C118.436 226.48 118.921 226.36 119.151 226.12C119.381 225.89 119.496 225.4 119.496 224.65V220.84C118.896 221.74 118.196 222.325 117.396 222.595C116.606 222.865 115.746 223 114.816 223H113.346C111.366 223 109.906 222.53 108.966 221.59C108.026 220.65 107.556 219.2 107.556 217.24V209.05C107.556 208.21 107.976 207.79 108.816 207.79C109.656 207.79 110.076 208.21 110.076 209.05V217.24C110.076 218.5 110.301 219.355 110.751 219.805C111.211 220.255 112.076 220.48 113.346 220.48H114.816C116.456 220.48 117.646 220.215 118.386 219.685C119.126 219.145 119.496 218.33 119.496 217.24V209.05C119.496 208.21 119.916 207.79 120.756 207.79C121.596 207.79 122.016 208.21 122.016 209.05V224.65C122.016 226.1 121.656 227.185 120.936 227.905C120.216 228.635 119.136 229 117.696 229H111.876ZM138.941 223C138.101 223 137.681 222.58 137.681 221.74V203.92C137.681 203.08 138.101 202.66 138.941 202.66H145.961C147.791 202.66 149.191 203.15 150.161 204.13C151.141 205.1 151.631 206.5 151.631 208.33V209.23C151.631 211.06 151.141 212.465 150.161 213.445C149.191 214.415 147.791 214.9 145.961 214.9H140.201V221.74C140.201 222.58 139.781 223 138.941 223ZM140.201 212.38H145.961C147.101 212.38 147.911 212.14 148.391 211.66C148.871 211.18 149.111 210.37 149.111 209.23V208.33C149.111 207.2 148.871 206.395 148.391 205.915C147.911 205.425 147.101 205.18 145.961 205.18H140.201V212.38ZM160.759 223C159.079 223 157.829 222.59 157.009 221.77C156.189 220.95 155.779 219.7 155.779 218.02C155.779 216.34 156.184 215.09 156.994 214.27C157.814 213.45 159.069 213.04 160.759 213.04H167.104C167.044 211.99 166.769 211.275 166.279 210.895C165.789 210.505 164.949 210.31 163.759 210.31H162.019C161.019 210.31 160.274 210.38 159.784 210.52C159.294 210.65 158.949 210.89 158.749 211.24C158.569 211.66 158.384 211.95 158.194 212.11C158.004 212.27 157.719 212.35 157.339 212.35C156.919 212.35 156.589 212.235 156.349 212.005C156.109 211.765 156.039 211.45 156.139 211.06C156.439 209.93 157.064 209.105 158.014 208.585C158.974 208.055 160.309 207.79 162.019 207.79H163.759C165.759 207.79 167.239 208.27 168.199 209.23C169.159 210.19 169.639 211.67 169.639 213.67V221.74C169.639 222.58 169.219 223 168.379 223C167.539 223 167.119 222.58 167.119 221.74V221.065C166.049 222.355 164.489 223 162.439 223H160.759ZM160.759 220.48H162.439C163.179 220.48 163.874 220.415 164.524 220.285C165.174 220.145 165.729 219.895 166.189 219.535C166.659 219.175 166.969 218.66 167.119 217.99V215.56H160.759C159.769 215.56 159.109 215.725 158.779 216.055C158.459 216.385 158.299 217.04 158.299 218.02C158.299 219.01 158.459 219.67 158.779 220C159.109 220.32 159.769 220.48 160.759 220.48ZM176.851 223C176.011 223 175.591 222.58 175.591 221.74V209.05C175.591 208.21 176.011 207.79 176.851 207.79C177.691 207.79 178.111 208.21 178.111 209.05V210.22C178.701 209.42 179.451 208.815 180.361 208.405C181.281 207.995 182.331 207.79 183.511 207.79C184.351 207.79 184.771 208.21 184.771 209.05C184.771 209.89 184.351 210.31 183.511 210.31C181.781 210.31 180.461 210.63 179.551 211.27C178.641 211.91 178.161 212.755 178.111 213.805V221.74C178.111 222.58 177.691 223 176.851 223ZM194.813 223C192.833 223 191.373 222.53 190.433 221.59C189.493 220.65 189.023 219.2 189.023 217.24V210.31H187.553C186.713 210.31 186.293 209.89 186.293 209.05C186.293 208.21 186.713 207.79 187.553 207.79H189.023V205.6C189.023 204.76 189.443 204.34 190.283 204.34C191.123 204.34 191.543 204.76 191.543 205.6V207.79H194.993C195.833 207.79 196.253 208.21 196.253 209.05C196.253 209.89 195.833 210.31 194.993 210.31H191.543V217.24C191.543 218.51 191.773 219.37 192.233 219.82C192.693 220.26 193.553 220.48 194.813 220.48C195.203 220.48 195.508 220.58 195.728 220.78C195.958 220.98 196.073 221.3 196.073 221.74C196.073 222.58 195.653 223 194.813 223ZM202.222 223C201.382 223 200.962 222.58 200.962 221.74V209.05C200.962 208.21 201.382 207.79 202.222 207.79C203.062 207.79 203.482 208.21 203.482 209.05V209.545C204.542 208.375 206.102 207.79 208.162 207.79H209.002C211.002 207.79 212.482 208.27 213.442 209.23C214.402 210.19 214.882 211.67 214.882 213.67V221.74C214.882 222.58 214.462 223 213.622 223C212.782 223 212.362 222.58 212.362 221.74V213.67C212.362 212.36 212.122 211.475 211.642 211.015C211.172 210.545 210.292 210.31 209.002 210.31H208.162C206.962 210.31 205.917 210.45 205.027 210.73C204.137 211 203.622 211.43 203.482 212.02V221.74C203.482 222.58 203.062 223 202.222 223ZM222.625 216.43V217.15C222.625 218.44 222.86 219.32 223.33 219.79C223.8 220.25 224.685 220.48 225.985 220.48H228.445C229.465 220.48 230.22 220.385 230.71 220.195C231.2 220.005 231.525 219.67 231.685 219.19C231.795 218.81 231.945 218.52 232.135 218.32C232.335 218.12 232.635 218.02 233.035 218.02C233.455 218.02 233.775 218.13 233.995 218.35C234.215 218.57 234.285 218.89 234.205 219.31C233.985 220.55 233.395 221.475 232.435 222.085C231.475 222.695 230.145 223 228.445 223H225.985C223.995 223 222.515 222.52 221.545 221.56C220.585 220.6 220.105 219.13 220.105 217.15V213.67C220.105 211.64 220.585 210.15 221.545 209.2C222.515 208.24 223.995 207.77 225.985 207.79H228.445C230.445 207.79 231.925 208.27 232.885 209.23C233.845 210.18 234.325 211.66 234.325 213.67V215.17C234.325 216.01 233.905 216.43 233.065 216.43H222.625ZM225.985 210.31C224.685 210.29 223.8 210.515 223.33 210.985C222.86 211.455 222.625 212.35 222.625 213.67V213.91H231.805V213.67C231.805 212.36 231.57 211.475 231.1 211.015C230.64 210.545 229.755 210.31 228.445 210.31H225.985ZM241.099 223C240.259 223 239.839 222.58 239.839 221.74V209.05C239.839 208.21 240.259 207.79 241.099 207.79C241.939 207.79 242.359 208.21 242.359 209.05V210.22C242.949 209.42 243.699 208.815 244.609 208.405C245.529 207.995 246.579 207.79 247.759 207.79C248.599 207.79 249.019 208.21 249.019 209.05C249.019 209.89 248.599 210.31 247.759 210.31C246.029 210.31 244.709 210.63 243.799 211.27C242.889 211.91 242.409 212.755 242.359 213.805V221.74C242.359 222.58 241.939 223 241.099 223Z" fill="url(#paint0_linear_5_12)"/>
<g clip-path="url(#clip0_5_12)">
<path d="M179.499 39.4848L160.711 56.4836C159.812 57.293 159.283 58.4348 159.239 59.6414C159.194 60.7965 159.598 61.925 160.365 62.7887C159.355 63.1988 158.341 63.5176 157.334 63.7199C147.387 65.7418 136.691 61.0887 128.473 62.3328C127.938 62.4164 127.423 62.5137 126.916 62.6C125.504 62.2383 124.036 61.936 122.476 61.6985C121.35 61.5285 120.216 61.4582 119.088 61.4582C115.85 61.4664 112.619 62.0008 109.409 62.4918C106.205 62.9883 103.037 63.4524 100.049 63.4524C98.4781 63.4524 96.9613 63.3281 95.5039 63.0262C93.9441 62.7184 92.2734 62.0274 90.5781 61.0692C90.7129 60.6129 90.7777 60.127 90.7617 59.6414C90.7133 58.4352 90.1789 57.2934 89.2851 56.4836L70.4972 39.4848C59.3988 31.0262 19.7605 84.4024 25.5797 90.7449C31.3883 97.0879 41.8687 106.596 41.8687 106.596C42.7297 107.43 43.8875 107.895 45.0914 107.868C46.2926 107.844 47.434 107.339 48.2601 106.467L55.3344 98.9988C55.4316 99.1094 55.5312 99.2149 55.618 99.3281C56.225 100.03 56.6894 100.732 56.873 101.123C57.6664 102.81 59.6879 106.923 62.382 111.525C63.7312 113.825 65.2484 116.246 66.8758 118.556C67.7019 119.717 68.5492 120.859 69.4293 121.938C67.0433 124.891 67.0594 129.226 69.6613 132.159C72.5656 135.441 77.5777 135.741 80.857 132.834L81.084 132.632C79.6722 135.447 80.0176 138.956 82.2281 141.455C85.1324 144.732 90.1418 145.034 93.4211 142.127L94.7086 140.956C92.9461 143.846 93.1867 147.669 95.5484 150.335C98.4523 153.606 103.462 153.909 106.739 151.013L108.725 149.215C106.857 152.13 107.049 156.035 109.459 158.751C112.363 162.027 117.376 162.332 120.652 159.426L123.854 156.673C124.164 156.818 124.453 156.95 124.73 157.077L126.922 158.357L126.903 158.341C127.991 158.994 129.133 159.523 130.31 159.893C131.489 160.262 132.709 160.478 133.951 160.478C135.3 160.478 136.679 160.219 137.956 159.647C139.249 159.08 140.434 158.2 141.414 157.088C142.591 155.766 143.368 154.214 143.767 152.597C144.933 153.021 146.156 153.234 147.368 153.234C148.834 153.234 150.296 152.931 151.657 152.332C153.014 151.733 154.28 150.834 155.325 149.655C156.62 148.197 157.438 146.462 157.792 144.664C158.483 144.804 159.187 144.883 159.894 144.883C161.354 144.883 162.82 144.586 164.18 143.982C165.541 143.385 166.801 142.484 167.843 141.307C169.257 139.709 170.107 137.779 170.393 135.803C170.696 135.83 171.001 135.841 171.3 135.841C173.057 135.841 174.782 135.463 176.375 134.788C177.97 134.108 179.446 133.12 180.642 131.784C181.743 130.529 182.586 129.066 183.182 127.49C183.773 125.909 184.123 124.222 184.129 122.491C184.129 121.86 184.08 121.223 183.967 120.591C190.08 113.795 193.311 102.475 194.709 99.5063C194.755 99.409 194.804 99.3094 194.861 99.209L201.74 106.467C202.561 107.339 203.702 107.843 204.904 107.868C206.113 107.895 207.27 107.43 208.131 106.596C208.131 106.596 218.612 97.0879 224.423 90.7449C230.232 84.4024 190.6 31.0262 179.499 39.4848ZM177.245 125.25C176.9 126.173 176.392 127.02 175.893 127.577V127.571C175.437 128.095 174.724 128.602 173.895 128.958C173.064 129.309 172.128 129.501 171.299 129.501C170.757 129.501 170.257 129.417 169.855 129.282C169.828 129.271 169.807 129.263 169.782 129.255L160.738 120.526C159.477 119.312 157.469 119.35 156.255 120.607C155.037 121.868 155.073 123.876 156.333 125.09L163.629 132.132C163.655 132.202 163.68 132.27 163.715 132.34C164.02 132.936 164.171 133.606 164.171 134.27C164.166 135.29 163.823 136.278 163.097 137.098C162.668 137.584 162.168 137.935 161.62 138.178C161.078 138.42 160.484 138.545 159.893 138.545C158.87 138.539 157.88 138.194 157.054 137.465L156.868 137.298C156.835 137.26 156.811 137.217 156.776 137.174L148.846 128.898C147.637 127.63 145.626 127.587 144.363 128.796C143.098 130.005 143.054 132.018 144.266 133.282L150.986 140.304C151.003 140.329 151.019 140.358 151.032 140.38C151.44 141.055 151.651 141.832 151.651 142.612C151.651 143.635 151.305 144.625 150.577 145.448C150.15 145.929 149.648 146.28 149.1 146.528C148.555 146.766 147.964 146.884 147.367 146.884C146.35 146.884 145.356 146.539 144.533 145.813L144.411 145.713L141.955 143.743L137.942 139.479C136.741 138.207 134.736 138.148 133.461 139.349C132.187 140.548 132.125 142.561 133.327 143.832L137.14 147.878C137.532 148.542 137.739 149.292 137.739 150.054C137.737 151.068 137.391 152.062 136.668 152.877C136.234 153.371 135.818 153.657 135.389 153.849C134.962 154.035 134.506 154.135 133.95 154.138C133.446 154.138 132.862 154.048 132.218 153.843C131.567 153.638 130.868 153.32 130.139 152.893L130.12 152.877L129.005 152.229C132.107 149.303 132.347 144.426 129.499 141.211C126.633 137.983 121.718 137.654 118.439 140.434L119.032 139.9C122.307 136.998 122.609 131.986 119.707 128.709C116.803 125.432 111.791 125.13 108.517 128.034L106.576 129.786C108.446 126.879 108.252 122.966 105.839 120.25C102.938 116.973 97.9312 116.668 94.6492 119.575L92.0715 121.923C93.2805 119.181 92.8762 115.859 90.7574 113.467C87.8582 110.188 82.8437 109.888 79.5668 112.79L74.1039 117.632C73.4183 116.771 72.7301 115.85 72.0555 114.895C69.8207 111.721 67.7207 108.18 66.0578 105.146C64.3898 102.112 63.1484 99.5754 62.6058 98.4172C62.3199 97.8098 61.9793 97.2539 61.6125 96.7196C61.0406 95.8856 60.3844 95.111 59.7125 94.3793L86.5465 66.0528C88.9219 67.4965 91.4777 68.6762 94.2359 69.243C96.2012 69.6422 98.1469 69.7879 100.05 69.7879C103.675 69.7852 107.159 69.2535 110.382 68.7571C111.191 68.6274 111.987 68.5086 112.762 68.3899C110.346 70.0578 108.004 72.0363 105.507 74.3602C98.4062 80.9918 92.2711 89.0918 88.873 92.7731C85.4723 96.4492 91.7937 102.83 101.853 99.9039C111.914 96.9836 116.25 89.4801 116.25 89.4801L128.875 84.9485L141.41 87.8176L171.709 115.094L176.943 120.157L177.048 120.244C177.254 120.438 177.415 120.665 177.555 121.032C177.696 121.399 177.782 121.896 177.782 122.49C177.784 123.325 177.596 124.327 177.245 125.25Z" fill="url(#paint1_linear_5_12)"/>
</g>
<defs>
<linearGradient id="paint0_linear_5_12" x1="0" y1="211.5" x2="250" y2="211.5" gradientUnits="userSpaceOnUse">
<stop stop-color="#40448A"/>
<stop offset="1" stop-color="#0D105B"/>
</linearGradient>
<linearGradient id="paint1_linear_5_12" x1="24.9999" y1="100" x2="225.001" y2="100" gradientUnits="userSpaceOnUse">
<stop stop-color="#40448A"/>
<stop offset="1" stop-color="#0D105B"/>
</linearGradient>
<clipPath id="clip0_5_12">
<rect width="200" height="200" fill="white" transform="translate(25)"/>
</clipPath>
</defs>
</svg>
