<svg width="22" height="22" viewBox="0 0 22 22" fill="none" xmlns="http://www.w3.org/2000/svg">
<path d="M1.91044 2.52191C2.03638 2.16371 2.42885 1.97542 2.78706 2.10136L3.06334 2.19849C3.62848 2.39716 4.10849 2.5659 4.48623 2.75125C4.89014 2.94943 5.2365 3.19358 5.497 3.57478C5.75548 3.95304 5.8622 4.36803 5.91145 4.82305C5.9335 5.02673 5.94513 5.25218 5.95126 5.49998H15.7029C17.2475 5.49998 18.6379 5.49998 19.0448 6.02897C19.4518 6.55797 19.2927 7.35503 18.9745 8.94916L18.5164 11.1719C18.2275 12.5733 18.083 13.274 17.5773 13.6862C17.0716 14.0983 16.3561 14.0983 14.9252 14.0983H10.0642C7.50772 14.0983 6.22947 14.0983 5.43527 13.2607C4.64106 12.4229 4.5831 11.5331 4.5831 8.83664V6.45177C4.5831 5.77348 4.58217 5.31954 4.54444 4.97101C4.50838 4.63794 4.44449 4.47164 4.36175 4.35056C4.28103 4.23244 4.1585 4.12204 3.88054 3.98566C3.5846 3.84045 3.18242 3.69787 2.57044 3.48271L2.331 3.39852C1.97279 3.27259 1.78451 2.88012 1.91044 2.52191Z" fill="#212121"/>
<path d="M6.875 16.5C7.63439 16.5 8.25 17.1156 8.25 17.875C8.25 18.6344 7.63439 19.25 6.875 19.25C6.11561 19.25 5.5 18.6344 5.5 17.875C5.5 17.1156 6.11561 16.5 6.875 16.5Z" fill="#212121"/>
<path d="M15.125 16.5001C15.8844 16.5001 16.5 17.1156 16.5 17.8751C16.5 18.6344 15.8844 19.2501 15.125 19.2501C14.3656 19.2501 13.75 18.6344 13.75 17.8751C13.75 17.1156 14.3656 16.5001 15.125 16.5001Z" fill="#212121"/>
</svg>
