<svg width="22" height="22" viewBox="0 0 22 22" fill="none" xmlns="http://www.w3.org/2000/svg">
<g clip-path="url(#clip0_55_805)">
<path d="M19.2134 0H2.78669C2.38171 0 2.05334 0.328324 2.05334 0.733348V21.2667C2.05334 21.6717 2.38167 22 2.78669 22H19.2133C19.6183 22 19.9467 21.6717 19.9467 21.2667V0.733348C19.9467 0.328324 19.6184 0 19.2134 0ZM7.18669 3.9111H14.8133C15.2183 3.9111 15.5467 4.23943 15.5467 4.64445C15.5467 5.04943 15.2184 5.3778 14.8133 5.3778H7.18669C6.78171 5.3778 6.45334 5.04947 6.45334 4.64445C6.45339 4.23947 6.78171 3.9111 7.18669 3.9111ZM11 19.7511C9.92174 19.7511 9.04449 18.8739 9.04449 17.7956C9.04449 16.7173 9.92174 15.84 11 15.84C12.0783 15.84 12.9556 16.7173 12.9556 17.7956C12.9556 18.8739 12.0783 19.7511 11 19.7511ZM16.3778 18.5289H14.8134C14.4084 18.5289 14.08 18.2006 14.08 17.7956C14.08 17.3905 14.4084 17.0622 14.8134 17.0622H16.3778C16.7828 17.0622 17.1112 17.3905 17.1112 17.7956C17.1112 18.2006 16.7828 18.5289 16.3778 18.5289ZM16.3778 14.08H5.62224C5.21726 14.08 4.8889 13.7517 4.8889 13.3467C4.8889 12.9416 5.21722 12.6133 5.62224 12.6133H16.3778C16.7828 12.6133 17.1111 12.9416 17.1111 13.3467C17.1111 13.7517 16.7828 14.08 16.3778 14.08ZM16.3778 11.1956H5.62224C5.21726 11.1956 4.8889 10.8672 4.8889 10.4622C4.8889 10.0572 5.21722 9.72886 5.62224 9.72886H16.3778C16.7828 9.72886 17.1111 10.0572 17.1111 10.4622C17.1111 10.8672 16.7828 11.1956 16.3778 11.1956ZM16.3778 8.3111H5.62224C5.21726 8.3111 4.8889 7.98278 4.8889 7.57775C4.8889 7.17277 5.21722 6.84441 5.62224 6.84441H16.3778C16.7828 6.84441 17.1111 7.17273 17.1111 7.57775C17.1111 7.98278 16.7828 8.3111 16.3778 8.3111Z" fill="#212121"/>
</g>
<defs>
<clipPath id="clip0_55_805">
<rect width="22" height="22" fill="white"/>
</clipPath>
</defs>
</svg>
