<svg width="28" height="28" viewBox="0 0 28 28" fill="none" xmlns="http://www.w3.org/2000/svg">
<path d="M4.34771 21.4926V8.8466L2.21042 4.20495C2.1378 4.03879 2.13505 3.86309 2.20215 3.67786C2.26926 3.49263 2.38692 3.36324 2.55515 3.2897C2.72337 3.21615 2.90171 3.21252 3.09016 3.2788C3.27861 3.34508 3.40868 3.45994 3.48039 3.62338L5.84243 8.7785H22.1575L24.5195 3.62474C24.5922 3.45858 24.7222 3.34236 24.9098 3.27608C25.0982 3.20979 25.2766 3.21615 25.4448 3.29514C25.613 3.36415 25.7307 3.49127 25.7978 3.6765C25.8649 3.86173 25.8621 4.03788 25.7895 4.20495L23.6522 8.8466V21.4926C23.6522 22.0974 23.4339 22.6149 22.9972 23.0453C22.5606 23.4757 22.0366 23.6913 21.4253 23.6923H6.57462C5.96239 23.6923 5.43841 23.4766 5.00268 23.0453C4.56695 22.614 4.34863 22.0955 4.34771 21.4926ZM11.2422 14.8407H16.7577C16.9536 14.8407 17.1172 14.7753 17.2486 14.6446C17.3801 14.5138 17.4463 14.3517 17.4472 14.1583C17.4481 13.9649 17.3819 13.8033 17.2486 13.6735C17.1153 13.5436 16.9517 13.4783 16.7577 13.4774H11.2422C11.0464 13.4774 10.8827 13.5427 10.7513 13.6735C10.6198 13.8042 10.5536 13.9663 10.5527 14.1597C10.5518 14.3531 10.618 14.5147 10.7513 14.6446C10.8846 14.7744 11.0482 14.8393 11.2422 14.8393" fill="white"/>
</svg>
