<svg width="28" height="28" viewBox="0 0 28 28" fill="none" xmlns="http://www.w3.org/2000/svg">
<path d="M17.6597 5H14.17C13.845 5 13.5322 5.12495 13.2925 5.34987L9.29906 9.09851C9.295 9.10268 9.29094 9.11101 9.28687 9.11517C8.6125 9.76494 8.62469 10.8021 9.20156 11.4477C9.7175 12.0266 10.8022 12.1807 11.4806 11.5601C11.4847 11.556 11.4928 11.556 11.4969 11.5518L14.7428 8.5029C15.0069 8.25715 15.4212 8.27381 15.6609 8.54455C15.9047 8.81528 15.8844 9.23596 15.6203 9.48587L14.56 10.4813L20.475 15.4046C20.5928 15.5045 20.6984 15.6128 20.7959 15.7253V7.6657L18.5778 5.39152C18.3381 5.14162 18.005 5 17.6597 5ZM22.1 7.67403V16.9998C22.1 17.737 22.6809 18.3327 23.4 18.3327H26V7.67403H22.1ZM24.05 16.9998C23.6925 16.9998 23.4 16.6999 23.4 16.3334C23.4 15.9669 23.6925 15.667 24.05 15.667C24.4075 15.667 24.7 15.9669 24.7 16.3334C24.7 16.6999 24.4075 16.9998 24.05 16.9998ZM0 18.3285H2.6C3.31906 18.3285 3.9 17.7329 3.9 16.9956V7.67403H0V18.3285ZM1.95 15.667C2.3075 15.667 2.6 15.9669 2.6 16.3334C2.6 16.6999 2.3075 16.9998 1.95 16.9998C1.5925 16.9998 1.3 16.6999 1.3 16.3334C1.3 15.9627 1.5925 15.667 1.95 15.667ZM19.6584 16.4417L13.5931 11.3935L12.3744 12.5389C11.1678 13.6677 9.31937 13.5594 8.24281 12.3557C7.15 11.1311 7.23531 9.23596 8.42156 8.1197L11.7447 5H8.34031C7.995 5 7.66594 5.14162 7.42219 5.39152L5.2 7.6657V16.9915H5.94344L9.62 20.4027C10.7331 21.3316 12.3703 21.1566 13.2762 20.0154L13.2844 20.0071L14.0116 20.6527C14.6575 21.1941 15.6122 21.09 16.1362 20.4277L17.4119 18.82L17.6312 19.0033C18.1878 19.4656 19.0084 19.3823 19.4594 18.8075L19.8453 18.3202C20.3003 17.7454 20.215 16.9082 19.6584 16.4417Z" fill="white"/>
</svg>
