<svg width="26" height="26" viewBox="0 0 26 26" fill="none" xmlns="http://www.w3.org/2000/svg">
<path fill-rule="evenodd" clip-rule="evenodd" d="M8.66667 7.58333C8.66667 6.43406 9.12321 5.33186 9.93587 4.5192C10.7485 3.70655 11.8507 3.25 13 3.25C14.1493 3.25 15.2515 3.70655 16.0641 4.5192C16.8768 5.33186 17.3333 6.43406 17.3333 7.58333C17.3333 8.7326 16.8768 9.83481 16.0641 10.6475C15.2515 11.4601 14.1493 11.9167 13 11.9167C11.8507 11.9167 10.7485 11.4601 9.93587 10.6475C9.12321 9.83481 8.66667 8.7326 8.66667 7.58333ZM8.66667 14.0833C7.23008 14.0833 5.85233 14.654 4.8365 15.6698C3.82068 16.6857 3.25 18.0634 3.25 19.5C3.25 20.362 3.59241 21.1886 4.2019 21.7981C4.8114 22.4076 5.63805 22.75 6.5 22.75H19.5C20.362 22.75 21.1886 22.4076 21.7981 21.7981C22.4076 21.1886 22.75 20.362 22.75 19.5C22.75 18.0634 22.1793 16.6857 21.1635 15.6698C20.1477 14.654 18.7699 14.0833 17.3333 14.0833H8.66667Z" fill="white"/>
</svg>
